<svg width="50" height="50" viewBox="0 0 50 50" fill="none" xmlns="http://www.w3.org/2000/svg">
<g clip-path="url(#clip0_1419_192)">
<path d="M0 13.3333C0 8.66623 0 6.33268 0.908279 4.55008C1.70722 2.98207 2.98205 1.70722 4.55007 0.908278C6.33267 0 8.66624 0 13.3333 0H25V50H13.3333C8.66622 50 6.33267 50 4.55007 49.0917C2.98205 48.2928 1.70722 47.018 0.908279 45.45C0 43.6673 0 41.3338 0 36.6667V13.3333Z" fill="#FBA824"/>
<path d="M25 0H36.6667C41.3338 0 43.6673 0 45.45 0.908278C47.018 1.70722 48.2928 2.98207 49.0917 4.55008C50 6.33268 50 8.66623 50 13.3333V36.6667C50 41.3338 50 43.6673 49.0917 45.45C48.2928 47.018 47.018 48.2928 45.45 49.0917C43.6673 50 41.3338 50 36.6667 50H25V0Z" fill="#ED1B24"/>
<path d="M0 12.5C0 8.61715 0 6.67573 0.634337 5.1443C1.48012 3.1024 3.1024 1.48012 5.1443 0.634337C6.67574 0 8.61715 0 12.5 0C16.3829 0 18.3243 0 19.8557 0.634337C21.8977 1.48012 23.5198 3.1024 24.3657 5.1443C25 6.67573 25 8.61715 25 12.5V25H12.5C8.61715 25 6.67574 25 5.1443 24.3657C3.1024 23.5198 1.48012 21.8977 0.634337 19.8557C0 18.3243 0 16.3829 0 12.5Z" fill="#1A6453"/>
<path d="M25 12.5C25 8.61715 25 6.67573 25.6343 5.1443C26.4802 3.1024 28.1023 1.48012 30.1443 0.634337C31.6757 0 33.6172 0 37.5 0C41.3828 0 43.3243 0 44.8557 0.634337C46.8977 1.48012 48.5198 3.1024 49.3657 5.1443C50 6.67573 50 8.61715 50 12.5C50 16.3829 50 18.3243 49.3657 19.8557C48.5198 21.8977 46.8977 23.5198 44.8557 24.3657C43.3243 25 41.3828 25 37.5 25H25V12.5Z" fill="#2C76A7"/>
<path d="M25 25H37.5C41.3828 25 43.3243 25 44.8557 25.6343C46.8977 26.4802 48.5198 28.1023 49.3657 30.1443C50 31.6757 50 33.6172 50 37.5C50 41.3828 50 43.3243 49.3657 44.8557C48.5198 46.8977 46.8977 48.5198 44.8557 49.3657C43.3243 50 41.3828 50 37.5 50C33.6172 50 31.6757 50 30.1443 49.3657C28.1023 48.5198 26.4802 46.8977 25.6343 44.8557C25 43.3243 25 41.3828 25 37.5V25Z" fill="#72BC4D"/>
<path d="M0 37.5C0 33.6172 0 31.6757 0.634337 30.1443C1.48012 28.1023 3.1024 26.4802 5.1443 25.6343C6.67574 25 8.61715 25 12.5 25H25V37.5C25 41.3828 25 43.3243 24.3657 44.8557C23.5198 46.8977 21.8977 48.5198 19.8557 49.3657C18.3243 50 16.3829 50 12.5 50C8.61715 50 6.67574 50 5.1443 49.3657C3.1024 48.5198 1.48012 46.8977 0.634337 44.8557C0 43.3243 0 41.3828 0 37.5Z" fill="#1D325F"/>
</g>
<defs>
<clipPath id="clip0_1419_192">
<rect width="50" height="50" fill="white"/>
</clipPath>
</defs>
</svg>
