<svg width="17" height="18" viewBox="0 0 17 18" fill="none" xmlns="http://www.w3.org/2000/svg">
<path fill-rule="evenodd" clip-rule="evenodd" d="M4.00008 2.33341C4.00008 3.25389 3.25389 4.00008 2.33341 4.00008C1.41294 4.00008 0.666748 3.25389 0.666748 2.33341C0.666748 1.41294 1.41294 0.666748 2.33341 0.666748C3.25389 0.666748 4.00008 1.41294 4.00008 2.33341ZM4.00008 6.08342V17.3334H0.666748V6.08342H4.00008ZM6.50008 6.08342H9.83341V6.78459C10.3547 6.60034 10.9157 6.50008 11.5001 6.50008C14.2615 6.50008 16.5001 8.73866 16.5001 11.5001V17.3334H13.1667V11.5001C13.1667 10.5796 12.4206 9.83341 11.5001 9.83341C10.5796 9.83341 9.83341 10.5796 9.83341 11.5001V17.3334H6.50008V11.5001V6.08342Z" fill="#8873EF"/>
</svg>
