<svg width="16" height="14" viewBox="0 0 16 14" fill="none" xmlns="http://www.w3.org/2000/svg">
<path d="M10.7383 0.333252C8.98514 0.333252 7.56388 1.82564 7.56388 3.66659C7.56388 3.94477 7.59634 4.215 7.65748 4.47331C5.97172 4.47331 3.43258 4.13249 1.31199 2.00792C1.03 1.72541 0.51003 1.9143 0.529589 2.31298C0.84386 8.7188 3.58727 10.5873 5.00004 10.7036C4.08775 11.6046 2.76254 12.3159 1.42903 12.6351C1.0771 12.7193 0.990156 13.1046 1.33429 13.2165C2.28848 13.5269 3.65426 13.6464 4.38942 13.6666C9.59011 13.6666 13.8171 9.2892 13.9112 3.85183C14.594 3.40779 15.0314 2.44367 15.2771 1.76068C15.337 1.59434 15.0644 1.40053 14.9012 1.46847C14.3911 1.68082 13.7435 1.73116 13.192 1.55142C12.6098 0.80764 11.7268 0.333252 10.7383 0.333252Z" fill="#8873EF"/>
</svg>
